<svg width="20" height="22" viewBox="0 0 20 22" fill="none" xmlns="http://www.w3.org/2000/svg">
<path d="M13.051 10.4668C13.051 11.1175 12.571 11.6508 11.963 11.6508C11.3657 11.6508 10.875 11.1175 10.875 10.4668C10.875 9.81616 11.355 9.28283 11.963 9.28283C12.571 9.28283 13.051 9.81616 13.051 10.4668ZM8.06966 9.28283C7.46166 9.28283 6.98166 9.81616 6.98166 10.4668C6.98166 11.1175 7.47233 11.6508 8.06966 11.6508C8.67766 11.6508 9.15766 11.1175 9.15766 10.4668C9.16833 9.81616 8.67766 9.28283 8.06966 9.28283ZM19.3337 2.53083V21.6668C16.6464 19.2921 17.5058 20.0782 14.3843 17.1762L14.9497 19.1495H2.85366C1.64833 19.1495 0.666992 18.1682 0.666992 16.9522V2.53083C0.666992 1.31483 1.64833 0.333496 2.85366 0.333496H17.147C18.3523 0.333496 19.3337 1.31483 19.3337 2.53083ZM16.2937 12.6428C16.2937 9.20816 14.7577 6.42416 14.7577 6.42416C13.2217 5.27216 11.7603 5.30416 11.7603 5.30416L11.611 5.47483C13.4243 6.0295 14.267 6.8295 14.267 6.8295C11.7332 5.44079 8.75683 5.44054 6.29899 6.52016C5.90433 6.7015 5.66966 6.8295 5.66966 6.8295C5.66966 6.8295 6.55499 5.98683 8.47499 5.43216L8.36833 5.30416C8.36833 5.30416 6.90699 5.27216 5.37099 6.42416C5.37099 6.42416 3.83499 9.20816 3.83499 12.6428C3.83499 12.6428 4.73099 14.1895 7.08833 14.2642C7.08833 14.2642 7.48299 13.7842 7.80299 13.3788C6.44833 12.9735 5.93633 12.1202 5.93633 12.1202C6.09324 12.23 6.35199 12.3724 6.37366 12.3868C8.17408 13.3951 10.7315 13.7254 13.0297 12.7602C13.403 12.6215 13.819 12.4188 14.2563 12.1308C14.2563 12.1308 13.723 13.0055 12.3257 13.4002C12.6457 13.8055 13.0297 14.2642 13.0297 14.2642C15.387 14.1895 16.2937 12.6428 16.2937 12.6428V12.6428Z" fill="#7288DA"/>
</svg>
