<svg width="22" height="22" viewBox="0 0 22 22" fill="none" xmlns="http://www.w3.org/2000/svg">
<path d="M19.3806 0.333496H2.61872C2.01251 0.333496 1.43113 0.574312 1.00248 1.00297C0.573823 1.43162 0.333008 2.013 0.333008 2.61921L0.333008 19.3811C0.333008 19.9873 0.573823 20.5687 1.00248 20.9974C1.43113 21.426 2.01251 21.6668 2.61872 21.6668H9.15444V14.414H6.15444V11.0002H9.15444V8.39826C9.15444 5.43873 10.9163 3.80397 13.6149 3.80397C14.9073 3.80397 16.2587 4.03445 16.2587 4.03445V6.93921H14.7697C13.3025 6.93921 12.8449 7.84969 12.8449 8.7835V11.0002H16.1201L15.5963 14.414H12.8449V21.6668H19.3806C19.9868 21.6668 20.5682 21.426 20.9969 20.9974C21.4255 20.5687 21.6663 19.9873 21.6663 19.3811V2.61921C21.6663 2.013 21.4255 1.43162 20.9969 1.00297C20.5682 0.574312 19.9868 0.333496 19.3806 0.333496V0.333496Z" fill="#121212"/>
</svg>
