<svg width="22" height="22" viewBox="0 0 22 22" fill="none" xmlns="http://www.w3.org/2000/svg">
<path d="M11.0021 5.53185C7.97517 5.53185 5.53368 7.97334 5.53368 11.0002C5.53368 14.0271 7.97517 16.4686 11.0021 16.4686C14.0289 16.4686 16.4704 14.0271 16.4704 11.0002C16.4704 7.97334 14.0289 5.53185 11.0021 5.53185ZM11.0021 14.5554C9.046 14.5554 7.44689 12.961 7.44689 11.0002C7.44689 9.03941 9.04124 7.44507 11.0021 7.44507C12.9629 7.44507 14.5572 9.03941 14.5572 11.0002C14.5572 12.961 12.9581 14.5554 11.0021 14.5554V14.5554ZM17.9696 5.30816C17.9696 6.01729 17.3985 6.58364 16.6941 6.58364C15.985 6.58364 15.4186 6.01253 15.4186 5.30816C15.4186 4.60379 15.9897 4.03268 16.6941 4.03268C17.3985 4.03268 17.9696 4.60379 17.9696 5.30816ZM21.5914 6.60268C21.5105 4.89411 21.1202 3.38067 19.8685 2.13374C18.6216 0.88682 17.1082 0.496562 15.3996 0.410896C13.6387 0.310951 8.36067 0.310951 6.59975 0.410896C4.89594 0.491803 3.3825 0.882061 2.13081 2.12898C0.879132 3.37591 0.493632 4.88935 0.407966 6.59792C0.308022 8.35884 0.308022 13.6368 0.407966 15.3978C0.488873 17.1063 0.879132 18.6198 2.13081 19.8667C3.3825 21.1136 4.89118 21.5039 6.59975 21.5896C8.36067 21.6895 13.6387 21.6895 15.3996 21.5896C17.1082 21.5086 18.6216 21.1184 19.8685 19.8667C21.1155 18.6198 21.5057 17.1063 21.5914 15.3978C21.6913 13.6368 21.6913 8.3636 21.5914 6.60268V6.60268ZM19.3165 17.2872C18.9452 18.22 18.2266 18.9387 17.289 19.3146C15.885 19.8715 12.5536 19.743 11.0021 19.743C9.45054 19.743 6.11431 19.8667 4.71509 19.3146C3.78227 18.9434 3.06363 18.2248 2.68765 17.2872C2.13081 15.8832 2.25931 12.5517 2.25931 11.0002C2.25931 9.44871 2.13557 6.11248 2.68765 4.71326C3.05887 3.78044 3.77751 3.0618 4.71509 2.68582C6.11906 2.12898 9.45054 2.25748 11.0021 2.25748C12.5536 2.25748 15.8898 2.13374 17.289 2.68582C18.2218 3.05704 18.9405 3.77568 19.3165 4.71326C19.8733 6.11724 19.7448 9.44871 19.7448 11.0002C19.7448 12.5517 19.8733 15.888 19.3165 17.2872Z" fill="#121212"/>
</svg>
