<svg width="22" height="22" viewBox="0 0 22 22" fill="none" xmlns="http://www.w3.org/2000/svg">
<path d="M20.1435 0.333008H1.85303C1.01494 0.333008 0.333984 1.02348 0.333984 1.8711V20.1282C0.333984 20.9759 1.01494 21.6663 1.85303 21.6663H20.1435C20.9816 21.6663 21.6673 20.9759 21.6673 20.1282V1.8711C21.6673 1.02348 20.9816 0.333008 20.1435 0.333008ZM6.7816 18.6187H3.6197V8.43777H6.78637V18.6187H6.7816ZM5.20065 7.04729C4.18637 7.04729 3.36732 6.22348 3.36732 5.21396C3.36732 4.20444 4.18637 3.38063 5.20065 3.38063C6.21018 3.38063 7.03398 4.20444 7.03398 5.21396C7.03398 6.22825 6.21494 7.04729 5.20065 7.04729ZM18.634 18.6187H15.4721V13.6663C15.4721 12.4854 15.4483 10.9663 13.8292 10.9663C12.1816 10.9663 11.9292 12.2521 11.9292 13.5806V18.6187H8.76732V8.43777H11.8007V9.82825H11.8435C12.2673 9.02825 13.3007 8.18539 14.8387 8.18539C18.0387 8.18539 18.634 10.2949 18.634 13.0378V18.6187Z" fill="#121212"/>
</svg>
