<svg width="22" height="22" viewBox="0 0 22 22" fill="none" xmlns="http://www.w3.org/2000/svg">
<path d="M19.2874 8.6416C18.613 8.6416 18.0195 8.92038 17.5833 9.35653C15.9781 8.24592 13.8153 7.53099 11.4187 7.45455L12.6643 1.84305L16.6301 2.73333C16.6301 3.70456 17.4214 4.49592 18.3927 4.49592C19.3819 4.49592 20.1777 3.68207 20.1777 2.71085C20.1777 1.73963 19.3864 0.925781 18.3927 0.925781C17.7002 0.925781 17.1022 1.34395 16.8054 1.91499L12.4259 0.943767C12.2056 0.885314 11.9898 1.04269 11.9313 1.26301L10.5644 7.45006C8.18584 7.54898 6.04555 8.2639 4.43584 9.37451C3.99969 8.92038 3.38369 8.6416 2.70923 8.6416C0.20923 8.6416 -0.609115 11.9959 1.67955 13.1425C1.59862 13.4977 1.56265 13.8754 1.56265 14.2531C1.56265 18.0211 5.80724 21.0741 11.0186 21.0741C16.2524 21.0741 20.497 18.0211 20.497 14.2531C20.497 13.8754 20.4565 13.4797 20.3576 13.1245C22.6013 11.9734 21.774 8.6416 19.2874 8.6416V8.6416ZM5.30814 13.3808C5.30814 12.3916 6.09951 11.5957 7.09322 11.5957C8.06444 11.5957 8.8558 12.3871 8.8558 13.3808C8.8558 14.352 8.06444 15.1434 7.09322 15.1434C6.10401 15.1479 5.30814 14.352 5.30814 13.3808V13.3808ZM14.9439 17.5849C13.3072 19.2216 8.68944 19.2216 7.05275 17.5849C6.87289 17.4276 6.87289 17.1488 7.05275 16.9689C7.21012 16.8116 7.4889 16.8116 7.64627 16.9689C8.89627 18.2504 13.0419 18.2729 14.3459 16.9689C14.5033 16.8116 14.7821 16.8116 14.9394 16.9689C15.1238 17.1488 15.1238 17.4276 14.9439 17.5849ZM14.908 15.1479C13.9367 15.1479 13.1454 14.3565 13.1454 13.3853C13.1454 12.3961 13.9367 11.6002 14.908 11.6002C15.8972 11.6002 16.693 12.3916 16.693 13.3853C16.6885 14.352 15.8972 15.1479 14.908 15.1479Z" fill="#FF4400"/>
</svg>
