<svg width="20" height="22" viewBox="0 0 20 22" fill="none" xmlns="http://www.w3.org/2000/svg">
<path d="M19.333 9.08196C17.4981 9.08635 15.7083 8.51413 14.2163 7.44613V14.8947C14.2158 16.2742 13.7941 17.6208 13.0077 18.7542C12.2212 19.8876 11.1075 20.754 9.81539 21.2373C8.52329 21.7207 7.11442 21.7981 5.77715 21.4592C4.43989 21.1202 3.23797 20.3811 2.33211 19.3406C1.42626 18.3001 0.859642 17.0079 0.708033 15.6367C0.556423 14.2655 0.827045 12.8807 1.48371 11.6675C2.14038 10.4542 3.15179 9.47038 4.38271 8.84747C5.61363 8.22457 7.00538 7.9923 8.37186 8.18173V11.9281C7.74656 11.7314 7.07509 11.7373 6.45335 11.945C5.83162 12.1527 5.2914 12.5516 4.90986 13.0846C4.52831 13.6176 4.32495 14.2576 4.32881 14.9131C4.33267 15.5686 4.54356 16.2061 4.93136 16.7346C5.31915 17.2631 5.86403 17.6555 6.48817 17.8559C7.11231 18.0562 7.7838 18.0542 8.40675 17.8502C9.02969 17.6462 9.57224 17.2505 9.9569 16.7197C10.3416 16.1889 10.5487 15.5502 10.5487 14.8947V0.333496H14.2163C14.2137 0.643216 14.2397 0.952514 14.2938 1.25748V1.25748C14.4212 1.93827 14.6862 2.5859 15.0725 3.16077C15.4589 3.73563 15.9584 4.22564 16.5406 4.60083C17.3689 5.1485 18.34 5.44041 19.333 5.44021V9.08196Z" fill="#121212"/>
</svg>
