<svg width="166" height="24" viewBox="0 0 166 24" fill="none" xmlns="http://www.w3.org/2000/svg">
<path id="vector" d="M165.752 16.8019C165.752 17.7293 165.54 18.5149 165.121 19.164C164.697 19.8077 164.153 20.3314 163.479 20.7351C162.804 21.1388 162.054 21.4334 161.233 21.6134C160.406 21.7934 159.596 21.8862 158.791 21.8862C157.806 21.8862 156.892 21.7771 156.06 21.5534C155.228 21.3297 154.499 20.9915 153.89 20.5387C153.276 20.086 152.792 19.5186 152.444 18.8422C152.112 18.2094 151.932 17.462 151.894 16.6056H155.348C155.473 17.5275 155.848 18.1766 156.474 18.5585C157.137 18.9622 157.931 19.164 158.856 19.164C159.177 19.164 159.547 19.1368 159.954 19.0877C160.368 19.0386 160.754 18.9404 161.118 18.7985C161.483 18.6567 161.776 18.4494 162.01 18.1766C162.239 17.9039 162.348 17.5438 162.326 17.102C162.304 16.6601 162.146 16.2946 161.842 16.0109C161.543 15.7273 161.151 15.5036 160.678 15.329C160.205 15.1599 159.666 15.0126 159.063 14.8926C158.459 14.7726 157.844 14.6417 157.224 14.4999C156.582 14.358 155.962 14.1889 155.37 13.9871C154.777 13.7852 154.244 13.5125 153.771 13.1688C153.297 12.8251 152.922 12.3887 152.639 11.8541C152.357 11.3195 152.215 10.6594 152.215 9.87387C152.215 9.02831 152.422 8.31368 152.835 7.74089C153.248 7.1681 153.771 6.70441 154.401 6.34982C155.032 5.99524 155.739 5.74975 156.512 5.60792C157.284 5.46608 158.024 5.39517 158.731 5.39517C159.536 5.39517 160.303 5.48245 161.037 5.65156C161.771 5.82067 162.435 6.09889 163.027 6.4862C163.62 6.86806 164.115 7.36994 164.507 7.98638C164.898 8.60281 165.143 9.34471 165.246 10.2121H161.657C161.494 9.3829 161.118 8.83193 160.526 8.54826C159.933 8.26459 159.253 8.12276 158.491 8.12276C158.252 8.12276 157.964 8.14458 157.632 8.18276C157.3 8.22095 156.99 8.29732 156.697 8.41188C156.403 8.52098 156.158 8.68464 155.957 8.89739C155.756 9.11014 155.658 9.38835 155.658 9.73203C155.658 10.1575 155.805 10.5012 156.093 10.7631C156.387 11.0249 156.767 11.2431 157.241 11.4122C157.714 11.5813 158.252 11.7286 158.856 11.8486C159.46 11.9687 160.08 12.0996 160.727 12.2414C161.352 12.3832 161.961 12.5524 162.565 12.7542C163.169 12.956 163.707 13.2288 164.18 13.5725C164.654 13.9161 165.034 14.3471 165.328 14.8708C165.622 15.3945 165.763 16.0382 165.763 16.8074L165.752 16.8019ZM151.106 14.5326H139.646C139.646 15.1381 139.733 15.7218 139.902 16.2892C140.07 16.8565 140.331 17.3475 140.669 17.773C141.011 18.1985 141.441 18.5367 141.963 18.7876C142.485 19.0386 143.111 19.164 143.834 19.164C144.84 19.164 145.65 18.9458 146.26 18.5149C146.863 18.0894 147.315 17.4511 147.614 16.611H150.877C150.692 17.4402 150.388 18.1821 149.953 18.8313C149.512 19.4968 148.979 20.0587 148.354 20.5115C147.728 20.9642 147.032 21.3079 146.26 21.5425C145.487 21.7716 144.677 21.8916 143.834 21.8916C142.605 21.8916 141.522 21.6898 140.576 21.2861C139.63 20.8824 138.83 20.3205 138.178 19.5895C137.525 18.864 137.03 17.9966 136.698 16.9874C136.366 15.9782 136.203 14.8708 136.203 13.6598C136.203 12.5524 136.377 11.4941 136.731 10.4958C137.084 9.49746 137.585 8.61917 138.237 7.86636C138.89 7.10809 139.679 6.50802 140.603 6.06615C141.528 5.62428 142.572 5.40062 143.741 5.40062C144.965 5.40062 146.069 5.65702 147.043 6.1698C148.016 6.68259 148.827 7.36449 149.469 8.21004C150.11 9.05559 150.578 10.0321 150.872 11.1286C151.165 12.2305 151.236 13.3652 151.1 14.5326H151.106ZM147.668 12.2632C147.63 11.7177 147.511 11.194 147.32 10.6921C147.13 10.1903 146.869 9.7484 146.537 9.37745C146.205 9.00649 145.803 8.701 145.33 8.47189C144.856 8.24277 144.329 8.12276 143.747 8.12276C143.165 8.12276 142.594 8.2264 142.104 8.43915C141.609 8.65191 141.191 8.94103 140.837 9.31744C140.484 9.68839 140.206 10.1303 139.994 10.6321C139.782 11.134 139.668 11.6795 139.646 12.2632H147.668ZM134.893 1.75657C134.893 0.785545 134.109 0 133.147 0C132.184 0 131.395 0.785545 131.395 1.75657C131.395 2.72759 132.179 3.51313 133.147 3.51313C134.115 3.51313 134.898 2.72759 134.898 1.75657H134.893ZM131.428 5.82067H134.865V21.4607H131.428V5.82067ZM129.796 5.7934C128.279 5.7934 126.049 5.67884 124.015 7.68089H123.912V5.81522H120.686V21.4552H124.113L124.118 12.4978C124.118 9.68293 126.631 8.87557 129.796 8.87557V5.78794V5.7934ZM119.332 16.6056C119.147 17.4347 118.843 18.1766 118.408 18.8258C117.967 19.4913 117.434 20.0532 116.809 20.506C116.183 20.9588 115.487 21.3025 114.715 21.537C113.942 21.7661 113.132 21.8862 112.289 21.8862C111.06 21.8862 109.977 21.6843 109.031 21.2806C108.085 20.877 107.285 20.3151 106.633 19.5841C105.98 18.8585 105.485 17.9912 105.153 16.982C104.821 15.9727 104.658 14.8653 104.658 13.6543C104.658 12.5469 104.832 11.4886 105.186 10.4903C105.539 9.492 106.04 8.61372 106.692 7.86091C107.345 7.10264 108.134 6.50257 109.058 6.0607C109.983 5.61883 111.027 5.39517 112.196 5.39517C113.42 5.39517 114.524 5.65156 115.498 6.16435C116.471 6.67713 117.282 7.35903 117.924 8.20458C118.565 9.05013 119.033 10.0266 119.327 11.1231C119.62 12.225 119.691 13.3597 119.555 14.5271H108.096C108.096 15.1327 108.183 15.7164 108.351 16.2837C108.52 16.851 108.781 17.342 109.118 17.7675C109.461 18.193 109.89 18.5312 110.413 18.7822C110.935 19.0331 111.56 19.1586 112.283 19.1586C113.29 19.1586 114.1 18.9404 114.709 18.5094C115.313 18.0839 115.764 17.4456 116.063 16.6056H119.332ZM108.09 12.2632H116.112C116.074 11.7177 115.955 11.194 115.764 10.6921C115.574 10.1903 115.313 9.7484 114.981 9.37745C114.649 9.00649 114.247 8.701 113.774 8.47189C113.301 8.24277 112.773 8.12276 112.191 8.12276C111.609 8.12276 111.038 8.2264 110.549 8.43915C110.054 8.65191 109.635 8.94103 109.281 9.31744C108.928 9.68839 108.65 10.1303 108.438 10.6321C108.226 11.134 108.112 11.6795 108.09 12.2632ZM103.516 14.8654C103.222 14.3417 102.842 13.9052 102.369 13.567C101.895 13.2233 101.357 12.9506 100.753 12.7487C100.15 12.5469 99.535 12.3778 98.9149 12.236C98.2732 12.0941 97.6477 11.9632 97.044 11.8432C96.4403 11.7232 95.9018 11.5759 95.4287 11.4068C94.9555 11.2377 94.5748 11.0195 94.2811 10.7576C93.9874 10.4958 93.846 10.1521 93.846 9.72658C93.846 9.3829 93.9439 9.10468 94.1451 8.89193C94.3463 8.67918 94.5911 8.52098 94.8848 8.40642C95.1785 8.29732 95.4885 8.22095 95.8203 8.17731C96.152 8.13912 96.4403 8.1173 96.6796 8.1173C97.441 8.1173 98.1209 8.25913 98.7137 8.5428C99.3065 8.82647 99.6818 9.37744 99.845 10.2066H103.435C103.331 9.33926 103.086 8.59735 102.695 7.98092C102.303 7.36449 101.808 6.86806 101.216 6.48075C100.623 6.09888 99.9592 5.82067 99.2249 5.64611C98.4907 5.47699 97.7238 5.38971 96.9189 5.38971C96.2173 5.38971 95.4776 5.46063 94.6999 5.60246C93.9276 5.7443 93.2205 5.98978 92.5896 6.34437C91.9587 6.69895 91.4312 7.16264 91.0232 7.73544C90.6099 8.30823 90.4032 9.02286 90.4032 9.86841C90.4032 10.654 90.5446 11.314 90.8275 11.8486C91.1103 12.3832 91.4855 12.8197 91.9587 13.1633C92.4319 13.507 92.9649 13.7798 93.5577 13.9816C94.1506 14.1835 94.7706 14.3526 95.4123 14.4944C96.0378 14.6362 96.647 14.7672 97.2507 14.8872C97.8544 15.0072 98.3928 15.1545 98.866 15.3236C99.3392 15.4927 99.7253 15.7218 100.03 16.0055C100.329 16.2892 100.492 16.6492 100.514 17.0965C100.536 17.5384 100.427 17.8984 100.198 18.1712C99.9646 18.4439 99.6709 18.6512 99.3065 18.7931C98.9421 18.9349 98.556 19.0276 98.1426 19.0822C97.7293 19.1313 97.3649 19.1586 97.044 19.1586C96.1194 19.1586 95.3253 18.9567 94.6618 18.553C94.0363 18.1712 93.6611 17.522 93.536 16.6001H90.0823C90.1204 17.4566 90.2999 18.2039 90.6317 18.8367C90.9852 19.5132 91.4638 20.075 92.0784 20.5333C92.693 20.9861 93.4163 21.3243 94.2485 21.5479C95.0806 21.7716 95.9943 21.8807 96.9787 21.8807C97.7837 21.8807 98.5995 21.788 99.4207 21.6079C100.247 21.4279 100.993 21.1333 101.667 20.7297C102.341 20.326 102.891 19.8023 103.309 19.1586C103.734 18.5149 103.94 17.7293 103.94 16.7965C103.94 16.0328 103.794 15.3836 103.505 14.8599L103.516 14.8654ZM84.7469 1.04739V21.4607H89.0272V1.04739H84.7469ZM72.4226 14.6853H83.6754C83.757 13.4743 83.6537 12.3178 83.3763 11.2049C83.0935 10.0975 82.6366 9.11014 82.0057 8.24277C81.3748 7.3754 80.5644 6.68259 79.58 6.1698C78.5956 5.65702 77.4371 5.40062 76.1101 5.40062C74.9244 5.40062 73.8421 5.61337 72.8686 6.03342C71.895 6.45893 71.052 7.03717 70.3504 7.77362C69.6488 8.51007 69.1049 9.3829 68.7242 10.3921C68.3435 11.4013 68.1531 12.4923 68.1531 13.6598C68.1531 14.8272 68.3381 15.9782 68.7133 16.9874C69.0832 17.9966 69.6107 18.864 70.296 19.5895C70.9813 20.3151 71.8134 20.877 72.7979 21.2697C73.7823 21.6625 74.8864 21.8589 76.1155 21.8589C77.8831 21.8589 79.3951 21.4552 80.6406 20.6478C81.8861 19.8405 82.8107 18.4985 83.4144 16.6219H79.6453C79.5039 17.1074 79.1232 17.5657 78.4977 17.9966C77.8723 18.433 77.1326 18.6458 76.2678 18.6458C75.0604 18.6458 74.1358 18.3348 73.494 17.7075C72.8522 17.0802 72.4987 16.0764 72.4389 14.6799L72.4226 14.6853ZM79.3897 11.9632H72.4226C72.4443 11.6632 72.5096 11.3195 72.6184 10.9322C72.7272 10.5503 72.9175 10.1848 73.1894 9.84113C73.4614 9.49746 73.8203 9.20833 74.2772 8.97922C74.7286 8.7501 75.2997 8.63008 75.9796 8.63008C77.0238 8.63008 77.807 8.91376 78.3182 9.47564C78.8295 10.043 79.1884 10.8667 79.3897 11.9577V11.9632ZM55.8288 14.6853H67.0817C67.1633 13.4743 67.0599 12.3178 66.7826 11.2049C66.4997 10.0975 66.0429 9.11014 65.412 8.24277C64.7811 7.3754 63.9707 6.68259 62.9863 6.1698C62.0019 5.65702 60.8434 5.40062 59.5163 5.40062C58.3307 5.40062 57.2484 5.61337 56.2748 6.03342C55.3013 6.45893 54.4583 7.03717 53.7566 7.77362C53.055 8.51007 52.5112 9.3829 52.1304 10.3921C51.7497 11.4013 51.5594 12.4923 51.5594 13.6598C51.5594 14.8272 51.7443 15.9782 52.1196 16.9874C52.4894 17.9966 53.017 18.864 53.7023 19.5895C54.3875 20.3151 55.2197 20.877 56.2041 21.2697C57.1885 21.6625 58.2926 21.8589 59.5218 21.8589C61.2894 21.8589 62.8014 21.4552 64.0468 20.6478C65.2923 19.8405 66.2169 18.4985 66.8206 16.6219H63.0515C62.9101 17.1074 62.5294 17.5657 61.904 17.9966C61.2785 18.433 60.5388 18.6458 59.6741 18.6458C58.4666 18.6458 57.542 18.3348 56.9003 17.7075C56.2585 17.0802 55.905 16.0764 55.8451 14.6799L55.8288 14.6853ZM62.7959 11.9632H55.8288C55.8506 11.6632 55.9158 11.3195 56.0246 10.9322C56.1334 10.5503 56.3238 10.1848 56.5957 9.84113C56.8676 9.49746 57.2266 9.20833 57.6835 8.97922C58.1349 8.7501 58.7059 8.63008 59.3858 8.63008C60.43 8.63008 61.2132 8.91376 61.7245 9.47564C62.2357 10.043 62.5947 10.8667 62.7959 11.9577V11.9632ZM48.4103 5.82067V1.13468H44.13V5.82613H41.5357V8.701H44.13V17.9257C44.13 18.7112 44.2605 19.3495 44.5216 19.8296C44.7826 20.3151 45.1416 20.686 45.593 20.9479C46.0444 21.2097 46.5666 21.3843 47.1594 21.477C47.7522 21.5698 48.3831 21.6134 49.0467 21.6134C49.4709 21.6134 49.9005 21.6025 50.3411 21.5807C50.7816 21.5588 51.1841 21.5207 51.5485 21.4607V18.133C51.3473 18.1712 51.1351 18.2039 50.9176 18.2257C50.6946 18.2476 50.4662 18.2585 50.2214 18.2585C49.4981 18.2585 49.014 18.1385 48.7747 17.893C48.5354 17.6475 48.4103 17.1674 48.4103 16.4419V8.69555H51.5485V5.82067H48.4103ZM40.3827 7.98638C39.9693 7.35358 39.4526 6.84079 38.8272 6.45893C38.2017 6.07706 37.4947 5.80431 36.7006 5.64065C35.9065 5.47699 35.0853 5.40062 34.2423 5.40062C33.3993 5.40062 32.5726 5.47699 31.7676 5.62974C30.9627 5.78248 30.2393 6.04433 29.5975 6.41528C28.9558 6.78624 28.4336 7.29902 28.042 7.94273C27.6504 8.58644 27.4547 9.41563 27.4547 10.4248C27.4547 11.1122 27.5961 11.6904 27.8789 12.165C28.1617 12.6396 28.5315 13.0324 28.9938 13.3434C29.4561 13.6543 29.9837 13.9107 30.5765 14.1016C31.1693 14.2926 31.7785 14.4617 32.404 14.6035C33.9323 14.9254 35.1233 15.2472 35.9772 15.5691C36.8311 15.8909 37.2608 16.3764 37.2608 17.0201C37.2608 17.402 37.1683 17.7184 36.9888 17.9748C36.8094 18.2257 36.5809 18.4276 36.309 18.5803C36.0371 18.7331 35.7379 18.8422 35.4062 18.9131C35.0744 18.984 34.7589 19.0167 34.4544 19.0167C34.0302 19.0167 33.6277 18.9676 33.2306 18.864C32.8391 18.7658 32.491 18.6076 32.1918 18.3948C31.8927 18.1821 31.6425 17.9093 31.4522 17.5766C31.2944 17.2984 31.202 16.9765 31.1748 16.611H27.1066C27.1718 17.5602 27.4003 18.3567 27.8027 19.0004C28.2324 19.6986 28.7872 20.2551 29.4616 20.6806C30.136 21.1061 30.9028 21.4061 31.7676 21.5861C32.6324 21.7661 33.5189 21.8589 34.4217 21.8589C35.3246 21.8589 36.1785 21.7716 37.0324 21.6025C37.8863 21.4334 38.6477 21.1333 39.3112 20.7078C39.9748 20.2823 40.5132 19.7259 40.9265 19.0276C41.3399 18.3294 41.5466 17.4675 41.5466 16.4419C41.5466 15.7164 41.4052 15.1054 41.1223 14.609C40.8395 14.1125 40.4697 13.7034 40.0074 13.3706C39.5451 13.0379 39.0175 12.7706 38.4247 12.5687C37.8319 12.3669 37.2227 12.1978 36.5973 12.0559C35.9936 11.9141 35.4007 11.7832 34.8188 11.6632C34.2368 11.5431 33.7201 11.4068 33.2633 11.254C32.8119 11.1013 32.442 10.9049 32.1646 10.6649C31.8818 10.4248 31.7404 10.1084 31.7404 9.72658C31.7404 9.40472 31.822 9.14833 31.9797 8.9574C32.1429 8.76646 32.3387 8.61917 32.5671 8.52098C32.7955 8.42279 33.0566 8.35187 33.334 8.3246C33.6168 8.29187 33.8779 8.28095 34.1172 8.28095C34.8786 8.28095 35.5421 8.42824 36.1078 8.71737C36.6353 8.99013 36.9399 9.49746 37.0269 10.2394H41.0951C41.0027 9.34471 40.7634 8.5919 40.3718 7.99183L40.3827 7.98638ZM5.20455 6.47529C6.17266 6.47529 6.95585 5.68975 6.95585 4.71873C6.95585 3.7477 6.17266 2.96216 5.20455 2.96216C4.23645 2.96216 3.45326 3.7477 3.45326 4.71873C3.45326 5.68975 4.23645 6.47529 5.20455 6.47529ZM14.1296 9.9066C12.0629 9.9066 10.3823 11.5922 10.3823 13.6707C10.3823 15.7491 12.0629 17.4293 14.1296 17.4293C16.1964 17.4293 17.8824 15.7436 17.8824 13.6707C17.8824 11.5977 16.2018 9.9066 14.1296 9.9066ZM14.1296 14.7999C13.5096 14.7999 13.0038 14.2926 13.0038 13.6707C13.0038 13.0488 13.5096 12.5414 14.1296 12.5414C14.7496 12.5414 15.2554 13.0488 15.2554 13.6707C15.2554 14.2926 14.7496 14.7999 14.1296 14.7999ZM15.8755 4.25504V1.75657C15.8755 0.785545 15.0923 0 14.1242 0C13.1561 0 12.3729 0.785545 12.3729 1.75657V4.25504C8.50046 4.97512 5.45474 8.03002 4.73682 11.9141H2.25129C1.28319 11.9141 0.5 12.6996 0.5 13.6707C0.5 14.6417 1.28319 15.4272 2.25129 15.4272H4.74226C5.56352 19.8787 9.45225 23.2554 14.1296 23.2554C19.4052 23.2554 23.6856 18.9676 23.6856 13.6707C23.6856 8.97922 20.319 5.07877 15.8809 4.25504H15.8755ZM14.1296 19.7477C10.7793 19.7477 8.06536 17.0256 8.06536 13.6652C8.06536 10.3048 10.7793 7.58269 14.1296 7.58269C17.4799 7.58269 20.1939 10.3048 20.1939 13.6652C20.1939 17.0256 17.4799 19.7477 14.1296 19.7477Z" fill="white"/>
</svg>
