<svg width="22" height="16" viewBox="0 0 22 16" fill="none" xmlns="http://www.w3.org/2000/svg">
<path d="M21.2215 2.84699C20.9762 1.92316 20.2533 1.19559 19.3354 0.948671C17.6718 0.5 11.0007 0.5 11.0007 0.5C11.0007 0.5 4.32957 0.5 2.66586 0.948671C1.74801 1.19562 1.02512 1.92316 0.779765 2.84699C0.333984 4.52148 0.333984 8.01515 0.333984 8.01515C0.333984 8.01515 0.333984 11.5088 0.779765 13.1833C1.02512 14.1071 1.74801 14.8044 2.66586 15.0513C4.32957 15.5 11.0007 15.5 11.0007 15.5C11.0007 15.5 17.6717 15.5 19.3354 15.0513C20.2533 14.8044 20.9762 14.1071 21.2215 13.1833C21.6673 11.5088 21.6673 8.01515 21.6673 8.01515C21.6673 8.01515 21.6673 4.52148 21.2215 2.84699ZM8.81882 11.1871V4.84316L14.3946 8.01523L8.81882 11.1871Z" fill="#FF0000"/>
</svg>
